<svg width="200" height="200" viewBox="0 0 200 200" fill="none" xmlns="http://www.w3.org/2000/svg">
<path d="M0 2.77778C0 1.24365 1.24365 0 2.77778 0H197.222C198.756 0 200 1.24365 200 2.77778V197.222C200 198.756 198.756 200 197.222 200H2.77778C1.24365 200 0 198.756 0 197.222V2.77778Z" fill="#44BDA3"/>
<path d="M116.666 67.0138C116.666 67.5891 117.133 68.0555 117.708 68.0555H132.291C132.867 68.0555 133.333 68.5219 133.333 69.0972V83.3336C133.333 83.9089 133.799 84.3753 134.375 84.3753H165.625C166.2 84.3753 166.667 84.8416 166.667 85.4169V150C166.667 150.576 166.2 151.042 165.625 151.042H142.708C142.133 151.042 141.666 150.576 141.666 150V122.917C141.666 122.342 141.2 121.875 140.625 121.875H134.375C133.799 121.875 133.333 122.342 133.333 122.917V150C133.333 150.576 132.867 151.042 132.291 151.042H123.958C123.383 151.042 122.916 150.576 122.916 150V131.25C122.916 130.675 122.45 130.209 121.875 130.209H115.625C115.049 130.209 114.583 130.675 114.583 131.25V150C114.583 150.576 114.117 151.042 113.541 151.042H105.209C104.633 151.042 104.167 150.576 104.167 150V139.584C104.167 139.008 103.701 138.542 103.125 138.542H96.8754C96.3001 138.542 95.8337 139.008 95.8337 139.584V150C95.8337 150.576 95.3673 151.042 94.792 151.042H86.458C85.8827 151.042 85.4163 150.576 85.4163 150V131.25C85.4163 130.675 84.95 130.209 84.3747 130.209H78.1247C77.5494 130.209 77.083 130.675 77.083 131.25V150C77.083 150.576 76.6166 151.042 76.0413 151.042H67.708C67.1327 151.042 66.6663 150.576 66.6663 150V122.917C66.6663 122.342 66.2 121.875 65.6247 121.875H59.3747C58.7994 121.875 58.333 122.342 58.333 122.917V150C58.333 150.576 57.8666 151.042 57.2913 151.042H34.3747C33.7994 151.042 33.333 150.576 33.333 150V85.4169C33.333 84.8416 33.7994 84.3753 34.3747 84.3753H65.6243C66.1996 84.3753 66.666 83.9089 66.666 83.3336V69.0972C66.666 68.5219 67.1324 68.0555 67.7077 68.0555H82.291C82.8663 68.0555 83.3327 67.5891 83.3327 67.0138V52.4308C83.3327 51.8555 83.799 51.3892 84.3743 51.3892H115.625C116.2 51.3892 116.666 51.8555 116.666 52.4308V67.0138Z" fill="black"/>
</svg>
