<svg width="648" height="146" viewBox="0 0 648 146" fill="none" xmlns="http://www.w3.org/2000/svg">
<path d="M497.605 143V40.4001H523.805V54.2001H524.405C530.005 44.8001 540.005 37.6001 554.205 37.6001C567.205 37.6001 577.605 44.8001 582.605 55.6001H583.005C590.005 44.4001 600.805 37.6001 613.805 37.6001C635.405 37.6001 647.605 51.6001 647.605 74.0001V143H620.405V78.6001C620.405 67.0001 614.605 61.0001 604.605 61.0001C593.205 61.0001 586.205 69.8001 586.205 83.4001V143H559.005V78.6001C559.005 67.0001 553.205 61.0001 543.205 61.0001C532.205 61.0001 524.805 69.8001 524.805 83.4001V143H497.605Z" fill="white"/>
<path d="M437.016 146C403.016 146 383.816 122.2 383.816 91.6001C383.816 61.2001 404.416 37.6001 434.416 37.6001C467.416 37.6001 485.016 62.8001 485.016 99.4001H410.616C412.616 115.2 421.416 125 436.816 125C447.416 125 453.616 120.2 456.616 112.4H483.416C479.616 130.6 463.416 146 437.016 146ZM434.816 58.6001C420.416 58.6001 413.416 67.2001 411.016 80.6001H456.616C455.816 67.6001 447.216 58.6001 434.816 58.6001Z" fill="white"/>
<path d="M313.935 146C288.135 146 270.535 125 270.535 91.8C270.535 59.8 288.735 37.6 314.335 37.6C328.735 37.6 337.735 44.2 343.335 52.8H343.935V0H371.135V143H344.935V129.6H344.535C338.535 139.4 328.335 146 313.935 146ZM319.935 123.2C336.135 123.2 344.535 111.2 344.535 92.4C344.535 72.8 338.135 59.6 320.735 59.6C305.735 59.6 298.135 72.8 298.135 91.8C298.135 111.6 305.935 123.2 319.935 123.2Z" fill="white"/>
<path d="M209.291 146C177.491 146 155.691 122.4 155.691 91.8001C155.691 61.2001 177.491 37.6001 209.291 37.6001C241.091 37.6001 262.891 61.2001 262.891 91.8001C262.891 122.4 241.091 146 209.291 146ZM209.291 125.2C225.891 125.2 235.291 111.8 235.291 91.8001C235.291 71.8001 225.891 58.2001 209.291 58.2001C192.491 58.2001 183.291 71.8001 183.291 91.8001C183.291 111.8 192.491 125.2 209.291 125.2Z" fill="white"/>
<path d="M0 143V0H40.8L61 71.8C66 89.8 70 110.4 70 110.4H70.4C70.4 110.4 74.2 89.8 79.2 71.8L99.4 0H140.8V143H113.8V61C113.8 49.4 115 31.4 115 31.4H114.6C114.6 31.4 111.4 48.2 108.4 58.6L83.8 143H56L32 58.6C29 48.2 25.8 31.4 25.8 31.4H25.4C25.4 31.4 26.6 49.4 26.6 61V143H0Z" fill="white"/>
</svg>
