<svg width="800" height="146" viewBox="0 0 800 146" fill="none" xmlns="http://www.w3.org/2000/svg">
<path d="M137.105 0C138.172 0 139.037 0.889429 139.037 1.98633V141.014C139.037 142.111 138.172 143 137.105 143H1.93066C0.864351 143 0 142.11 0 141.014V1.98633C0 0.889567 0.864351 0.000223402 1.93066 0H137.105ZM58.6016 35.75C58.1997 35.75 57.8742 36.0844 57.874 36.4971V46.9609C57.8738 47.3735 57.5473 47.708 57.1455 47.708H46.957C46.5553 47.7081 46.2296 48.0425 46.2295 48.4551V58.6699C46.2295 59.0826 45.9037 59.4168 45.502 59.417H23.6689C23.267 59.417 22.9414 59.7523 22.9414 60.165V106.503C22.9416 106.916 23.2671 107.25 23.6689 107.25H39.6797C40.0815 107.25 40.4071 106.916 40.4072 106.503V87.0703C40.4074 86.6577 40.7339 86.3232 41.1357 86.3232H45.502C45.9038 86.3233 46.2294 86.6577 46.2295 87.0703V106.503C46.2297 106.915 46.5554 107.25 46.957 107.25H52.7793C53.1811 107.25 53.5076 106.916 53.5078 106.503V93.0498C53.5078 92.637 53.8334 92.3027 54.2354 92.3027H58.6016C59.0035 92.3027 59.3291 92.637 59.3291 93.0498V106.503C59.3293 106.916 59.6558 107.25 60.0576 107.25H65.8799C66.2817 107.25 66.6073 106.916 66.6074 106.503V99.0283C66.6076 98.6159 66.9334 98.2815 67.335 98.2812H71.7021C72.1039 98.2813 72.4295 98.6158 72.4297 99.0283V106.503C72.4299 106.915 72.7556 107.25 73.1572 107.25H78.9795C79.3812 107.25 79.7069 106.915 79.707 106.503V93.0498C79.707 92.6371 80.0327 92.3029 80.4346 92.3027H84.8018C85.2035 92.3029 85.5293 92.6372 85.5293 93.0498V106.503C85.5295 106.916 85.855 107.25 86.2568 107.25H92.0791C92.4809 107.25 92.8065 106.916 92.8066 106.503V87.0703C92.8068 86.6578 93.1325 86.3235 93.5342 86.3232H97.9014C98.3032 86.3233 98.6288 86.6577 98.6289 87.0703V106.503C98.6291 106.915 98.9548 107.25 99.3564 107.25H115.368C115.77 107.25 116.096 106.915 116.096 106.503V60.165C116.096 59.7524 115.77 59.4171 115.368 59.417H93.5342C93.1325 59.4167 92.8067 59.0825 92.8066 58.6699V48.4551C92.8065 48.0424 92.4809 47.708 92.0791 47.708H81.8906C81.4888 47.708 81.1623 47.3735 81.1621 46.9609V36.4971C81.1619 36.0844 80.8364 35.75 80.4346 35.75H58.6016Z" fill="black"/>
<path d="M646.185 143V40.4001H671.659V54.2001H672.243C677.687 44.8001 687.41 37.6001 701.217 37.6001C713.856 37.6001 723.968 44.8001 728.83 55.6001H729.218C736.024 44.4001 746.525 37.6001 759.165 37.6001C780.166 37.6001 792.028 51.6001 792.028 74.0001V143H765.582V78.6001C765.582 67.0001 759.943 61.0001 750.22 61.0001C739.136 61.0001 732.33 69.8001 732.33 83.4001V143H705.884V78.6001C705.884 67.0001 700.244 61.0001 690.522 61.0001C679.826 61.0001 672.631 69.8001 672.631 83.4001V143H646.185Z" fill="black"/>
<path d="M587.275 146C554.218 146 535.55 122.2 535.55 91.6001C535.55 61.2001 555.579 37.6001 584.747 37.6001C616.833 37.6001 633.945 62.8001 633.945 99.4001H561.607C563.552 115.2 572.108 125 587.081 125C597.387 125 603.415 120.2 606.332 112.4H632.389C628.695 130.6 612.944 146 587.275 146ZM585.136 58.6001C571.135 58.6001 564.329 67.2001 561.996 80.6001H606.332C605.554 67.6001 597.193 58.6001 585.136 58.6001Z" fill="black"/>
<path d="M467.605 146C442.52 146 425.408 125 425.408 91.8C425.408 59.8 443.104 37.6 467.994 37.6C481.995 37.6 490.746 44.2 496.191 52.8H496.774V0H523.22V143H497.746V129.6H497.357C491.524 139.4 481.606 146 467.605 146ZM473.439 123.2C489.19 123.2 497.357 111.2 497.357 92.4C497.357 72.8 491.135 59.6 474.217 59.6C459.633 59.6 452.243 72.8 452.243 91.8C452.243 111.6 459.827 123.2 473.439 123.2Z" fill="black"/>
<path d="M365.862 146C334.943 146 313.747 122.4 313.747 91.8001C313.747 61.2001 334.943 37.6001 365.862 37.6001C396.78 37.6001 417.976 61.2001 417.976 91.8001C417.976 122.4 396.78 146 365.862 146ZM365.862 125.2C382.002 125.2 391.141 111.8 391.141 91.8001C391.141 71.8001 382.002 58.2001 365.862 58.2001C349.527 58.2001 340.582 71.8001 340.582 91.8001C340.582 111.8 349.527 125.2 365.862 125.2Z" fill="black"/>
<path d="M162.372 143V0H202.041L221.681 71.8C226.542 89.8 230.432 110.4 230.432 110.4H230.82C230.82 110.4 234.515 89.8 239.377 71.8L259.017 0H299.269V143H273.018V61C273.018 49.4 274.184 31.4 274.184 31.4H273.795C273.795 31.4 270.684 48.2 267.767 58.6L243.849 143H216.82L193.485 58.6C190.568 48.2 187.457 31.4 187.457 31.4H187.068C187.068 31.4 188.234 49.4 188.234 61V143H162.372Z" fill="black"/>
</svg>
